<svg width="34" height="34" viewBox="0 0 34 34" fill="none" xmlns="http://www.w3.org/2000/svg">
<path d="M29.8277 6.26912L17.8749 2.474L5.92614 6.26912C5.4769 6.41089 5.17342 6.82892 5.17741 7.30173V22.4072C5.20131 22.5098 5.76477 24.9963 8.20786 27.4042C10.0875 29.2563 14.5961 31.637 16.5628 32.6693C16.8699 32.831 17.016 32.8901 17.1458 32.9608L17.7292 33.2523C17.8829 33.335 18.1588 33.3313 18.3126 33.2523L18.8959 32.9608C20.0464 32.3973 25.3706 29.5442 27.542 27.4042C29.9894 24.9963 30.5529 22.5098 30.5765 22.4072V7.30173C30.5841 6.82892 30.277 6.41089 29.8277 6.26912ZM18.0247 30.9115L18.0167 30.9075H18.0363C18.0287 30.9115 18.0247 30.9115 18.0247 30.9115ZM20.8739 22.1352H18.9428V24.8546C18.9428 25.4851 18.4304 25.9974 17.7999 25.9974C17.1694 25.9974 16.6571 25.4851 16.6571 24.8546V17.8397C16.6571 17.8162 16.661 17.7966 16.661 17.7767C16.4522 17.7136 16.2433 17.6385 16.0345 17.5442C15.3293 17.2212 14.7263 16.6418 14.3242 15.9837C13.9065 15.298 13.6857 14.4387 13.7528 13.6349C13.8315 12.7168 14.1625 11.9166 14.7499 11.2034C15.7665 9.96994 17.6346 9.46957 19.132 10.0171C19.9794 10.3285 20.669 10.8488 21.1893 11.5816C21.6465 12.2241 21.8789 13.024 21.8988 13.8082C21.8988 13.8318 21.9028 13.8514 21.8988 13.8753C21.8988 13.9028 21.8988 13.9304 21.8948 13.958C21.8397 15.6998 20.6418 17.343 18.9391 17.7966V19.8024H20.8702C21.5007 19.8024 22.0131 20.3147 22.0131 20.9452V20.9924H22.017C22.0167 21.6229 21.5044 22.1352 20.8739 22.1352Z" fill="#131514"/>
<path d="M19.191 14.9116C19.2027 14.892 19.2146 14.8761 19.2186 14.8721C19.2865 14.7679 19.3484 14.6599 19.4039 14.5487C19.455 14.4029 19.4945 14.2571 19.5261 14.1034C19.5301 14.0287 19.534 13.9497 19.538 13.8746C19.538 13.7996 19.534 13.7209 19.5261 13.6462C19.4985 13.4965 19.455 13.3467 19.4039 13.201C19.3579 13.1082 19.3079 13.0175 19.2541 12.929C19.2422 12.9171 19.2146 12.8779 19.1675 12.8029C19.1243 12.7554 19.0808 12.7042 19.0337 12.6611C18.9786 12.606 18.9194 12.5508 18.8564 12.4994C18.8368 12.4878 18.8212 12.4758 18.8168 12.4718C18.7128 12.4039 18.6049 12.342 18.4938 12.2865C18.348 12.2354 18.2023 12.1959 18.0525 12.1644C17.8988 12.1527 17.7451 12.1527 17.5913 12.1644C17.4416 12.1919 17.2918 12.2354 17.1501 12.2865C17.0573 12.3325 16.9666 12.3825 16.8781 12.4363C16.8662 12.4482 16.827 12.4758 16.7519 12.5229C16.7045 12.5661 16.6533 12.6096 16.6102 12.6568C16.5551 12.7119 16.4999 12.771 16.4485 12.8341C16.4369 12.8537 16.4249 12.8696 16.4209 12.8736C16.353 12.9776 16.2911 13.0855 16.2356 13.1966C16.1845 13.3424 16.145 13.4882 16.1135 13.6379C16.1018 13.7916 16.1018 13.9454 16.1135 14.0991C16.141 14.2488 16.1845 14.3986 16.2356 14.5404C16.2828 14.635 16.3303 14.7217 16.3854 14.8123C16.3973 14.8243 16.4249 14.8634 16.472 14.9385C16.5152 14.986 16.5587 15.0371 16.6059 15.0803C16.661 15.1354 16.7201 15.1905 16.7832 15.242C16.8027 15.2536 16.8187 15.2655 16.8227 15.2695C16.9249 15.3366 17.0355 15.3997 17.1457 15.4548C17.2915 15.5059 17.4373 15.5454 17.587 15.577C17.7407 15.5889 17.8945 15.5889 18.0482 15.577C18.1979 15.5494 18.3477 15.5059 18.4895 15.4548C18.5841 15.4076 18.6708 15.3602 18.7614 15.305C18.7734 15.2931 18.8125 15.2655 18.8876 15.2184C18.9387 15.1789 18.9862 15.1357 19.0294 15.0882C19.0848 15.0338 19.1399 14.9747 19.191 14.9116Z" fill="#131514"/>
</svg>
