<svg width="62" height="46" viewBox="0 0 62 46" fill="none" xmlns="http://www.w3.org/2000/svg">
<path d="M60.0017 5.29443C59.4354 3.4664 58.7027 1.69417 57.8129 0L0 23.9988C0.571736 25.8253 1.31105 27.595 2.20853 29.2853C5.87184 36.2005 11.9833 41.5001 19.3472 44.1473C26.7112 46.7946 34.7978 46.5989 42.0251 43.5987C49.2525 40.5986 55.1005 35.0096 58.4252 27.9254C61.7499 20.8412 62.312 12.7713 60.0017 5.29443ZM29.9751 40.1705C25.417 40.1719 20.9414 38.9546 17.0117 36.6448C13.0821 34.3349 9.84136 31.0165 7.62515 27.0332L54.5613 7.54851C55.6497 11.3549 55.84 15.3618 55.1174 19.2542C54.3948 23.1467 52.7789 26.8183 50.3967 29.9802C48.0146 33.1422 44.9313 35.7082 41.3894 37.4764C37.8475 39.2447 33.9437 40.1669 29.985 40.1705H29.9751Z" fill="url(#paint0_linear_5620_3838)"/>
<path d="M22.5042 31.1504C21.5422 33.0785 20.5505 33.0825 19.5726 32.5945C18.5948 32.1065 17.9924 31.3105 18.9623 29.3823C19.9322 27.4542 21.9352 24.9967 22.9131 25.5003C23.7605 25.9449 23.4663 29.2223 22.5042 31.1504Z" fill="url(#paint1_linear_5620_3838)"/>
<path d="M33.5982 31.9382C33.3611 34.0796 32.4326 34.4253 31.3462 34.3088C30.2597 34.1923 29.428 33.647 29.6651 31.5055C29.9021 29.364 30.9393 26.3691 32.0238 26.4995C32.9898 26.618 33.8372 29.7967 33.5982 31.9382Z" fill="url(#paint2_linear_5620_3838)"/>
<path d="M43.2814 27.6321C44.3521 29.503 43.803 30.3307 42.8547 30.874C41.9066 31.4172 40.9149 31.4666 39.8462 29.5978C38.7774 27.7289 37.847 24.6905 38.8031 24.1631C39.6486 23.7067 42.2127 25.7633 43.2814 27.6321Z" fill="url(#paint3_linear_5620_3838)"/>
<path d="M49.5002 18.3996C51.2464 19.662 51.0805 20.6399 50.4504 21.5269C49.8202 22.414 48.9292 22.8703 47.183 21.6079C45.4367 20.3455 43.3349 17.9651 43.9887 17.0899C44.5675 16.3175 47.7539 17.1373 49.5002 18.3996Z" fill="url(#paint4_linear_5620_3838)"/>
<defs>
<linearGradient id="paint0_linear_5620_3838" x1="0" y1="23" x2="61.4026" y2="23" gradientUnits="userSpaceOnUse">
<stop stop-color="#61FEA6"/>
<stop offset="1" stop-color="#34F977"/>
</linearGradient>
<linearGradient id="paint1_linear_5620_3838" x1="0" y1="23" x2="61.4026" y2="23" gradientUnits="userSpaceOnUse">
<stop stop-color="#61FEA6"/>
<stop offset="1" stop-color="#34F977"/>
</linearGradient>
<linearGradient id="paint2_linear_5620_3838" x1="0" y1="23" x2="61.4026" y2="23" gradientUnits="userSpaceOnUse">
<stop stop-color="#61FEA6"/>
<stop offset="1" stop-color="#34F977"/>
</linearGradient>
<linearGradient id="paint3_linear_5620_3838" x1="0" y1="23" x2="61.4026" y2="23" gradientUnits="userSpaceOnUse">
<stop stop-color="#61FEA6"/>
<stop offset="1" stop-color="#34F977"/>
</linearGradient>
<linearGradient id="paint4_linear_5620_3838" x1="0" y1="23" x2="61.4026" y2="23" gradientUnits="userSpaceOnUse">
<stop stop-color="#61FEA6"/>
<stop offset="1" stop-color="#34F977"/>
</linearGradient>
</defs>
</svg>
