<svg width="39" height="32" viewBox="0 0 39 32" fill="none" xmlns="http://www.w3.org/2000/svg">
<g clip-path="url(#clip0_5502_16224)">
<path d="M35.7495 19.0502C34.7489 19.0502 33.5779 20.0022 32.2268 21.1025C31.0246 22.0857 29.6793 23.1801 28.5475 23.4923C28.43 22.7666 28.1187 22.1559 27.6194 21.6663C26.1038 20.1836 23.2332 20.2773 21.5159 20.3299C21.2437 20.3377 21.0029 20.3455 20.8012 20.3455C20.3332 20.3455 19.7673 20.0275 18.988 19.5847C17.3627 18.6678 14.9385 17.308 10.4016 17.1286V15.166C10.4016 14.809 10.1078 14.5183 9.75147 14.5183H0.650098C0.291761 14.5183 0 14.807 0 15.166V29.4112C0 29.7682 0.293719 30.0589 0.650098 30.0589H9.75147C10.1098 30.0589 10.4016 29.7702 10.4016 29.4112V27.5891C11.2475 27.8349 12.5085 28.4358 13.8342 29.0639C16.5755 30.371 19.9964 32 22.7534 32C27.4784 32 39.0039 26.0518 39.0039 22.9363C39.0039 20.5406 37.7546 19.0521 35.7534 19.0521L35.7495 19.0502ZM22.7495 30.7066C20.2921 30.7066 17.0239 29.1478 14.3903 27.8993C12.7533 27.1189 11.4002 26.479 10.3996 26.2606V18.4259C14.592 18.6034 16.834 19.8617 18.3437 20.7123C19.268 21.2312 19.9886 21.6409 20.8012 21.6409C21.0166 21.6409 21.2692 21.6331 21.5551 21.6234C23.0628 21.5746 25.5849 21.4946 26.7108 22.591C26.983 22.8563 27.1514 23.1879 27.2375 23.582H16.9025C16.5442 23.582 16.2524 23.8707 16.2524 24.2297C16.2524 24.5887 16.5462 24.8774 16.9025 24.8774H27.9523C29.648 24.8774 31.4553 23.4045 33.0551 22.1052C34.0694 21.28 35.213 20.3455 35.7534 20.3455C37.4492 20.3455 37.7037 21.9687 37.7037 22.9343C37.7037 24.9184 27.3041 30.7046 22.7534 30.7046L22.7495 30.7066Z" fill="#131514"/>
<path d="M25.1345 0C20.6191 0 16.9594 3.64616 16.9594 8.14485C16.9594 12.6435 20.6191 16.2897 25.1345 16.2897C29.65 16.2897 33.3097 12.6435 33.3097 8.14485C33.3097 3.64616 29.65 0 25.1345 0ZM27.7623 11.5081C27.2728 11.9666 26.6305 12.2436 25.8297 12.3412V13.7224H24.5765V12.388C23.9597 12.3685 23.4153 12.269 22.9453 12.0895C22.4754 11.91 22.0446 11.6232 21.653 11.2292L22.7672 10.1133C23.2351 10.5795 23.8931 10.8273 24.7409 10.8546V8.62281L24.3415 8.56819C23.5994 8.47065 23.0295 8.22679 22.634 7.83271C22.2091 7.40938 21.9976 6.83777 21.9976 6.114C21.9976 5.39023 22.2267 4.79522 22.6888 4.31921C23.149 3.8432 23.7795 3.56032 24.5784 3.47058V2.35469H25.8316V3.45888C26.3368 3.49204 26.7872 3.58959 27.1827 3.75151C27.5783 3.91538 27.9444 4.15534 28.2793 4.47333L27.1827 5.54825C26.8185 5.19905 26.3114 5.00006 25.6573 4.95129V7.10504L26.1293 7.17722C26.8792 7.29037 27.4432 7.52058 27.8191 7.87173C28.2714 8.29897 28.4966 8.91544 28.4966 9.72505C28.4966 10.4566 28.2519 11.0516 27.7643 11.512L27.7623 11.5081Z" fill="#131514"/>
<path d="M26.2546 8.85103C26.141 8.80421 26.0529 8.77495 25.9883 8.76324C25.9237 8.75154 25.812 8.73398 25.6554 8.70862V10.8331C26.0274 10.7882 26.3133 10.677 26.5131 10.4956C26.7128 10.3142 26.8126 10.0723 26.8126 9.77184C26.8126 9.44604 26.7226 9.19829 26.5405 9.03051C26.4641 8.95833 26.3682 8.89785 26.2565 8.85298L26.2546 8.85103Z" fill="#131514"/>
<path d="M23.662 6.05354C23.662 6.31106 23.7481 6.5198 23.9224 6.68172C24.1163 6.86315 24.3885 6.97825 24.7409 7.02507V4.96106C24.3943 5.00983 24.128 5.13274 23.942 5.33172C23.756 5.53071 23.6639 5.77067 23.6639 6.05354H23.662Z" fill="#131514"/>
</g>
<defs>
<clipPath id="clip0_5502_16224">
<rect width="39" height="32" fill="white"/>
</clipPath>
</defs>
</svg>
