<svg width="32" height="32" viewBox="0 0 32 32" fill="none" xmlns="http://www.w3.org/2000/svg">
<path d="M3.74546 31.92C3.04898 31.92 2.50049 31.3505 2.50049 30.6753C2.50049 29.9785 3.06998 29.4298 3.74546 29.4298H29.4924C30.1893 29.4298 30.7378 29.9998 30.7378 30.6753C30.7378 31.3715 30.1681 31.92 29.4924 31.92H3.74546ZM28.7544 4.06264L25.04 0.348473C24.8156 0.125435 24.5121 0.000244141 24.1957 0.000244141C23.8794 0.000244141 23.5759 0.125435 23.3515 0.348473L19.5948 4.10514L24.9975 9.50776L28.7541 5.7511C29.2186 5.28686 29.2186 4.54813 28.7544 4.06264ZM18.4764 5.22336L5.96166 17.7383C5.62392 18.0761 5.32867 18.8148 5.32867 18.8148L3.38697 24.9772C3.23947 25.4411 3.68221 25.8634 4.1467 25.7366L10.2666 23.7952C10.2666 23.7952 11.0053 23.5209 11.3643 23.1409L23.879 10.626L18.4764 5.22336Z" fill="#131514"/>
</svg>
