<svg width="28" height="29" viewBox="0 0 28 29" fill="none" xmlns="http://www.w3.org/2000/svg">
<path d="M6.73938 23.8745C7.91336 23.8745 23.4557 23.8737 24.6299 23.8745C25.1185 23.8745 25.3175 24.0807 25.3175 24.5839C25.3175 24.9076 25.3195 25.2313 25.317 25.555C25.3135 25.948 25.0928 26.1863 24.7157 26.1871C22.3079 26.1895 5.53216 26.1895 3.12451 26.1871C2.75217 26.1864 2.53558 25.9593 2.52825 25.5679C2.52167 25.2169 2.52358 24.8651 2.52752 24.5138C2.53219 24.0943 2.74361 23.8761 3.15177 23.8754C4.34752 23.8729 5.54331 23.8745 6.7393 23.8745L6.73938 23.8745Z" fill="#FF5A0E"/>
<path d="M4.17715 17.8096C4.17715 17.0129 4.17482 14.5534 4.17715 13.7567C4.17936 13.0813 4.4785 12.7726 5.12781 12.771C5.59919 12.7697 6.07046 12.7675 6.54181 12.772C7.10949 12.7774 7.43023 13.1077 7.43125 13.7004C7.43573 15.3344 7.43461 18.6311 7.43231 20.2653C7.4301 20.8679 7.10375 21.2017 6.52477 21.2052C6.03885 21.2082 5.55164 21.2089 5.06432 21.2052C4.51033 21.2005 4.18398 20.8725 4.1795 20.2975C4.17157 19.4678 4.17728 18.6387 4.17728 17.8097L4.17715 17.8096Z" fill="#FF5A0E"/>
<path d="M12.2834 16.4767C12.2834 15.2643 12.2834 9.90819 12.2845 8.69563C12.2845 8.01367 12.593 7.69363 13.2497 7.69184C13.7216 7.69079 14.1934 7.68782 14.6641 7.69249C15.2189 7.69833 15.5535 8.02664 15.5557 8.60109C15.5614 11.0993 15.5614 17.7414 15.5557 20.2401C15.5547 20.8234 15.2144 21.1583 14.6495 21.1624C14.1946 21.1661 13.7387 21.163 13.2827 21.163C12.5963 21.1624 12.2846 20.8434 12.2846 20.1398C12.2833 18.9185 12.2833 17.6979 12.2833 16.4766L12.2834 16.4767Z" fill="#FF5A0E"/>
<path d="M23.6927 14.8358C23.6927 16.6075 23.6939 18.3797 23.6927 20.1517C23.6927 20.8891 23.4027 21.1895 22.6947 21.1895C22.2393 21.1895 21.7839 21.1922 21.3286 21.1888C20.7757 21.1836 20.4405 20.8504 20.4393 20.2814C20.4359 16.6478 20.4359 7.15581 20.4393 3.52237C20.4404 2.96041 20.7599 2.63365 21.3104 2.62252C21.8044 2.61258 22.2994 2.61541 22.7933 2.62141C23.3835 2.62852 23.6904 2.9476 23.6916 3.56343C23.695 5.36786 23.6928 13.031 23.6928 14.8358H23.6927Z" fill="#FF5A0E"/>
</svg>
