<svg width="105" height="24" viewBox="0 0 105 24" fill="none" xmlns="http://www.w3.org/2000/svg">
<path d="M29.0256 13.6276C29.0256 11.6529 28.5325 10.1453 27.5646 9.147C26.5957 8.14861 25.1685 7.64941 23.3313 7.64941C22.8122 7.64932 22.2948 7.71036 21.7899 7.83119C21.2897 7.95327 20.8033 8.12662 20.3384 8.34831C19.8774 8.56797 19.4382 8.83074 19.0267 9.13295C18.6279 9.42644 18.2611 9.76102 17.9326 10.1313L17.4494 10.6724L17.092 10.0415C16.6712 9.26628 16.0185 8.64209 15.2252 8.25645C14.2961 7.83351 13.2826 7.62858 12.2623 7.65746C11.4358 7.65736 10.6161 7.80619 9.84242 8.09668C9.07438 8.383 8.35567 8.78714 7.71204 9.29477L6.8695 9.96566V7.97294H0.434462V11.2535H2.83042V19.989H0.402588V23.8685H9.519V19.997H6.90147V12.9646L7.01328 12.8229C7.48648 12.1815 8.11141 11.6677 8.83216 11.3274C9.41291 11.0675 10.0427 10.9355 10.679 10.94C11.1222 10.9465 11.5601 11.0381 11.9687 11.2096C12.3564 11.374 12.7068 11.6151 12.999 11.9184C13.2955 12.2323 13.5263 12.6022 13.6778 13.0066C13.8409 13.4501 13.9221 13.9197 13.9174 14.3922V23.8685H20.3365V19.997H17.9705V13.6814C17.9705 13.5777 17.9705 13.4818 17.9565 13.374L17.9386 13.1743L18.0604 13.0146C18.5128 12.3641 19.1006 11.8191 19.7834 11.4172C20.3697 11.1008 21.0259 10.936 21.6922 10.938C22.6904 10.938 23.489 11.2595 24.0701 11.8944C24.6511 12.5294 24.9224 13.368 24.9224 14.4202V23.8666H30.571V19.997H29.0256V13.6276Z" fill="white"/>
<path d="M49.5505 15.3608V15.3129C49.5291 14.2589 49.3383 13.2154 48.9856 12.2219C48.6639 11.3173 48.1679 10.4844 47.5265 9.77005C46.8792 9.06651 46.0877 8.51073 45.206 8.14079C44.1925 7.72686 43.1064 7.52309 42.0116 7.5417C40.8886 7.52736 39.7744 7.74275 38.7377 8.1747C37.7901 8.57274 36.9337 9.15827 36.2186 9.89592C35.5036 10.6337 34.9445 11.5084 34.5764 12.4676C34.184 13.4762 33.9863 14.5501 33.9931 15.6323C33.9873 16.7257 34.1752 17.8114 34.5483 18.839C34.8961 19.8265 35.4493 20.7288 36.1731 21.4861C36.8959 22.2435 37.7708 22.8385 38.7416 23.2318C39.8713 23.6858 41.0814 23.9086 42.2993 23.8867C42.9359 23.8919 43.5724 23.8546 44.2042 23.7749C44.7157 23.7057 45.2205 23.5893 45.7117 23.4274C46.2001 23.2642 46.6748 23.0641 47.1331 22.8284C47.5003 22.6287 47.8975 22.4171 48.319 22.1675L47.043 19.7875C46.7998 19.8773 46.5537 19.9652 46.3124 20.049C45.923 20.1848 45.5141 20.3046 45.1139 20.4065C44.6905 20.5127 44.2613 20.5948 43.8282 20.652C43.3603 20.7151 42.8894 20.7458 42.4166 20.7438C41.9021 20.7433 41.3895 20.6762 40.8915 20.5442C40.3974 20.4195 39.9256 20.2173 39.4944 19.9451C39.0633 19.6682 38.6835 19.3198 38.3695 18.9149C38.044 18.4904 37.8124 18.0018 37.6894 17.4812L37.6748 17.4074L37.5712 16.3591H49.6105C49.6105 16.2712 49.6105 16.1834 49.6105 16.0976C49.6047 15.8499 49.5863 15.6063 49.5505 15.3608ZM37.5973 14.0789L37.7746 13.422C37.8802 13.0419 38.0256 12.6743 38.2106 12.3258C38.4131 11.9512 38.6844 11.6174 39.009 11.3415C39.3655 11.0375 39.7773 10.8062 40.223 10.6606C40.7607 10.4904 41.3237 10.4094 41.8876 10.421C42.4224 10.4086 42.9553 10.4917 43.461 10.6665C43.8728 10.8199 44.2468 11.0588 44.5597 11.3674C44.8456 11.6541 45.0752 11.9929 45.2341 12.3657C45.3862 12.7218 45.5025 13.0924 45.58 13.4719L45.7098 14.0968L37.5973 14.0789Z" fill="white"/>
<path d="M59.344 0.0539551H53.0192V3.33652H55.5431V20.2704H53.0192V23.7726H61.868V20.2704H59.344V0.0539551Z" fill="white"/>
<path d="M79.334 10.1328C78.5937 9.39203 77.7159 8.80388 76.75 8.40168C74.63 7.55231 72.265 7.55231 70.1451 8.40168C69.1849 8.79826 68.3139 9.38214 67.5814 10.1192C66.8489 10.8562 66.2705 11.7317 65.881 12.6945C65.476 13.6933 65.2726 14.762 65.2813 15.8393C65.2735 16.9253 65.4731 18.0028 65.8684 19.0141C66.2414 19.9796 66.8073 20.8587 67.532 21.5973C68.2567 22.3359 69.1248 22.9184 70.0831 23.309C72.2427 24.158 74.6446 24.158 76.8042 23.309C77.7644 22.9153 78.6354 22.33 79.363 21.5889C80.0897 20.8478 80.6594 19.9662 81.0344 18.9982C81.4287 17.9918 81.6263 16.9199 81.6196 15.8393C81.6263 14.7615 81.4229 13.6926 81.0208 12.6926C80.6323 11.7368 80.0587 10.8668 79.334 10.1328ZM77.5551 17.7562C77.3448 18.3168 77.028 18.8314 76.6221 19.2717C76.2229 19.7001 75.7394 20.0402 75.2007 20.27C74.6446 20.5048 74.0468 20.6236 73.4441 20.6195C72.8424 20.6222 72.2476 20.4998 71.6963 20.26C71.1595 20.0241 70.675 19.6848 70.2691 19.2617C69.8534 18.8232 69.526 18.3095 69.3031 17.7482C69.0638 17.1418 68.9446 16.495 68.9514 15.8434C68.9427 15.1741 69.0619 14.5092 69.3031 13.8846C69.5221 13.3183 69.8525 12.8016 70.2749 12.3651C70.6828 11.9501 71.1711 11.6232 71.7108 11.4047C72.264 11.1813 72.857 11.0739 73.4538 11.0892C74.0487 11.0763 74.6397 11.1837 75.193 11.4047C75.7307 11.6218 76.2161 11.9506 76.6182 12.3691C77.028 12.807 77.3478 13.3222 77.557 13.8846C77.7847 14.5095 77.8971 15.1704 77.8903 15.8354C77.8971 16.4908 77.7837 17.142 77.5551 17.7562Z" fill="white"/>
<path d="M102.57 13.4894C102.57 11.5267 102.082 10.0271 101.122 9.03281C100.162 8.03849 98.764 7.54327 96.9551 7.54327C96.1044 7.53997 95.2595 7.68667 94.4592 7.97657C93.6841 8.26047 92.9575 8.66481 92.3073 9.17457L91.4663 9.83345V7.84276H85.064V11.1253H87.43V19.8588H85.0339V23.7724H94.1502V19.8588H91.4983V12.8705L91.6126 12.7287C92.0884 12.0846 92.7143 11.5664 93.4351 11.2192C94.0223 10.9603 94.6569 10.8245 95.2983 10.8198C95.7275 10.8042 96.1548 10.8806 96.553 11.0438C96.9502 11.207 97.3078 11.4534 97.6023 11.7663C98.1749 12.3833 98.4665 13.2278 98.4665 14.2721V23.7824H104.885V19.8689H102.57V13.4894Z" fill="white"/>
</svg>
